<svg width="512" height="512" viewBox="0 0 512 512" fill="none" xmlns="http://www.w3.org/2000/svg">
  <!-- Headphones -->
  <path d="M256 80C150 80 80 150 80 256V320H120V256C120 172 172 120 256 120C340 120 392 172 392 256V320H432V256C432 150 362 80 256 80Z" fill="url(#gradient1)"/>
  
  <!-- Left Earpiece -->
  <rect x="80" y="280" width="60" height="100" rx="10" fill="url(#gradient2)"/>
  
  <!-- Right Earpiece -->
  <rect x="372" y="280" width="60" height="100" rx="10" fill="url(#gradient2)"/>
  
  <!-- B Letter with Musical Notes -->
  <path d="M200 180H280C310 180 330 200 330 230C330 250 320 265 305 270C325 275 340 290 340 315C340 345 320 365 290 365H200V180Z M240 210V255H280C295 255 305 245 305 230C305 215 295 210 280 210H240Z M240 285V335H290C305 335 315 325 315 315C315 300 305 285 290 285H240Z" fill="url(#gradient3)"/>
  
  <!-- Musical Notes -->
  <circle cx="230" cy="250" r="8" fill="#FFD700"/>
  <circle cx="260" cy="280" r="8" fill="#FFD700"/>
  <line x1="230" y1="250" x2="230" y2="220" stroke="#FFD700" stroke-width="3"/>
  <line x1="260" y1="280" x2="260" y2="250" stroke="#FFD700" stroke-width="3"/>
  
  <!-- Musical Lines inside B -->
  <line x1="245" y1="225" x2="275" y2="225" stroke="white" stroke-width="2"/>
  <line x1="245" y1="235" x2="275" y2="235" stroke="white" stroke-width="2"/>
  <line x1="245" y1="245" x2="270" y2="245" stroke="white" stroke-width="2"/>
  <line x1="245" y1="300" x2="280" y2="300" stroke="white" stroke-width="2"/>
  <line x1="245" y1="310" x2="280" y2="310" stroke="white" stroke-width="2"/>
  <line x1="245" y1="320" x2="275" y2="320" stroke="white" stroke-width="2"/>
  
  <defs>
    <linearGradient id="gradient1" x1="0%" y1="0%" x2="100%" y2="0%">
      <stop offset="0%" style="stop-color:#FF6B6B;stop-opacity:1" />
      <stop offset="100%" style="stop-color:#FFD93D;stop-opacity:1" />
    </linearGradient>
    <linearGradient id="gradient2" x1="0%" y1="0%" x2="0%" y2="100%">
      <stop offset="0%" style="stop-color:#FF6B6B;stop-opacity:1" />
      <stop offset="100%" style="stop-color:#C23866;stop-opacity:1" />
    </linearGradient>
    <linearGradient id="gradient3" x1="0%" y1="0%" x2="100%" y2="100%">
      <stop offset="0%" style="stop-color:#7F00FF;stop-opacity:1" />
      <stop offset="100%" style="stop-color:#E100FF;stop-opacity:1" />
    </linearGradient>
  </defs>
</svg>

